<svg width="69" height="65" viewBox="0 0 69 65" fill="none" xmlns="http://www.w3.org/2000/svg">
<g filter="url(#filter0_d_89_305)">
<path d="M58.875 54.8438C58.875 55.3825 58.661 55.8992 58.28 56.2801C57.8991 56.661 57.3825 56.875 56.8437 56.875H20.2812C19.7425 56.875 19.2259 56.661 18.8449 56.2801C18.464 55.8992 18.25 55.3825 18.25 54.8438C18.25 54.305 18.464 53.7884 18.8449 53.4075C19.2259 53.0265 19.7425 52.8125 20.2812 52.8125H56.8437C57.3825 52.8125 57.8991 53.0265 58.28 53.4075C58.661 53.7884 58.875 54.305 58.875 54.8438ZM64.9687 34.5313V40.625C64.9687 41.1637 64.7547 41.6804 64.3738 42.0613C63.9929 42.4423 63.4762 42.6563 62.9375 42.6563H18.1992C16.0138 42.6638 13.8848 41.9627 12.1315 40.658C10.3782 39.3534 9.09508 37.5155 8.4746 35.4199L4.89452 23.5117C4.71672 22.9023 4.6815 22.2602 4.79157 21.635C4.90164 21.0098 5.15405 20.4183 5.52928 19.9063C5.91299 19.4012 6.4083 18.9917 6.9765 18.7098C7.54469 18.4279 8.17039 18.2813 8.80467 18.2813H13.1719C13.4684 18.2819 13.7611 18.3482 14.0289 18.4756C14.2968 18.6029 14.533 18.788 14.7207 19.0176L19.1894 24.375H23.5566L21.2715 17.5449C21.0658 16.9332 21.0087 16.2813 21.1051 15.6432C21.2015 15.0051 21.4486 14.3991 21.8258 13.8755C22.203 13.3518 22.6996 12.9256 23.2743 12.632C23.8491 12.3385 24.4855 12.1861 25.1308 12.1875H29.4219C29.7039 12.186 29.9832 12.2441 30.2413 12.3578C30.4994 12.4716 30.7307 12.6385 30.9199 12.8477L41.4824 24.375H54.8125C57.5061 24.375 60.0894 25.4451 61.994 27.3497C63.8987 29.2544 64.9687 31.8377 64.9687 34.5313ZM60.9062 34.5313C60.8996 32.9172 60.2554 31.3711 59.114 30.2297C57.9727 29.0884 56.4266 28.4442 54.8125 28.4375H40.5937C40.3117 28.439 40.0324 28.381 39.7743 28.2672C39.5162 28.1535 39.2849 27.9866 39.0957 27.7774L28.5332 16.25H25.1308L28.3047 25.7715C28.4041 26.0769 28.4306 26.4013 28.3821 26.7187C28.3336 27.0362 28.2114 27.3379 28.0254 27.5996C27.8378 27.8616 27.5899 28.0745 27.3026 28.2203C27.0153 28.3662 26.6971 28.4407 26.375 28.4375H18.25C17.9534 28.4369 17.6607 28.3706 17.3929 28.2432C17.1251 28.1159 16.8888 27.9308 16.7012 27.7012L12.2324 22.3438H8.77928L12.3594 34.252C12.7326 35.5097 13.5034 36.6126 14.5563 37.3953C15.6091 38.1781 16.8873 38.5986 18.1992 38.5938H60.9062V34.5313Z" fill="white"/>
</g>
<defs>
<filter id="filter0_d_89_305" x="-2" y="0" width="73" height="73" filterUnits="userSpaceOnUse" color-interpolation-filters="sRGB">
<feFlood flood-opacity="0" result="BackgroundImageFix"/>
<feColorMatrix in="SourceAlpha" type="matrix" values="0 0 0 0 0 0 0 0 0 0 0 0 0 0 0 0 0 0 127 0" result="hardAlpha"/>
<feOffset dy="4"/>
<feGaussianBlur stdDeviation="2"/>
<feComposite in2="hardAlpha" operator="out"/>
<feColorMatrix type="matrix" values="0 0 0 0 0 0 0 0 0 0 0 0 0 0 0 0 0 0 0.25 0"/>
<feBlend mode="normal" in2="BackgroundImageFix" result="effect1_dropShadow_89_305"/>
<feBlend mode="normal" in="SourceGraphic" in2="effect1_dropShadow_89_305" result="shape"/>
</filter>
</defs>
</svg>
